<?xml version="1.0" encoding="iso-8859-1"?>
<!-- Generator: Adobe Illustrator 19.0.0, SVG Export Plug-In . SVG Version: 6.00 Build 0)  -->
<svg version="1.1" id="Layer_1" xmlns="http://www.w3.org/2000/svg" xmlns:xlink="http://www.w3.org/1999/xlink" x="0px" y="0px"
	 viewBox="0 0 512 512" style="enable-background:new 0 0 512 512;" xml:space="preserve">
<g>
	<g>
		<path d="M122.054,87.628h-76.88C20.265,87.628,0,107.893,0,132.802v246.396c0,24.909,20.265,45.174,45.174,45.174h76.88
			c5.185,0,9.389-4.204,9.389-9.389V97.017C131.443,91.832,127.239,87.628,122.054,87.628z M68.851,405.594H45.174
			c-14.555,0-26.396-11.841-26.396-26.396V132.802c0-14.555,11.841-26.396,26.396-26.396h23.677V405.594z M112.665,405.594H87.628
			V106.406h25.037V405.594z"/>
	</g>
</g>
<g>
	<g>
		<path d="M466.826,87.628h-76.88c-5.186,0-9.389,4.204-9.389,9.389v317.966c0,5.185,4.202,9.389,9.389,9.389h76.88
			c24.909,0,45.174-20.265,45.174-45.174V132.802C512,107.893,491.735,87.628,466.826,87.628z M434.386,106.406h32.44
			c13.239,0,24.202,9.808,26.081,22.533h-58.521V106.406z M415.609,405.594h-16.274V106.406h16.274V405.594z M466.826,405.594
			h-32.44v-17.526h57.27C488.001,398.266,478.266,405.594,466.826,405.594z M493.223,369.291h-58.836V348.01h58.836V369.291z
			 M493.223,329.232h-58.836v-21.281h58.836V329.232z M493.223,289.174h-58.836v-21.281h58.836V289.174z M493.223,249.115h-58.836
			v-21.281h58.836V249.115z M493.223,209.056h-58.836v-21.281h58.836V209.056z M493.223,168.998h-58.836v-21.281h58.836V168.998z"/>
	</g>
</g>
<g>
	<g>
		<path d="M154.602,87.628c-5.185,0-9.389,4.204-9.389,9.389v317.966c0,5.185,4.204,9.389,9.389,9.389
			c5.185,0,9.389-4.204,9.389-9.389V97.017C163.99,91.832,159.787,87.628,154.602,87.628z"/>
	</g>
</g>
<g>
	<g>
		<path d="M188.401,87.628c-5.185,0-9.389,4.204-9.389,9.389v317.966c0,5.185,4.204,9.389,9.389,9.389
			c5.185,0,9.389-4.204,9.389-9.389V97.017C197.79,91.832,193.586,87.628,188.401,87.628z"/>
	</g>
</g>
<g>
	<g>
		<path d="M222.201,87.628c-5.185,0-9.389,4.204-9.389,9.389v317.966c0,5.185,4.204,9.389,9.389,9.389s9.389-4.204,9.389-9.389
			V97.017C231.589,91.832,227.386,87.628,222.201,87.628z"/>
	</g>
</g>
<g>
	<g>
		<path d="M256,87.628c-5.185,0-9.389,4.204-9.389,9.389v317.966c0,5.185,4.204,9.389,9.389,9.389c5.186,0,9.389-4.204,9.389-9.389
			V97.017C265.389,91.832,261.186,87.628,256,87.628z"/>
	</g>
</g>
<g>
	<g>
		<path d="M289.799,87.628c-5.186,0-9.389,4.204-9.389,9.389v317.966c0,5.185,4.202,9.389,9.389,9.389
			c5.186,0,9.389-4.204,9.389-9.389V97.017C299.188,91.832,294.986,87.628,289.799,87.628z"/>
	</g>
</g>
<g>
	<g>
		<path d="M323.599,87.628c-5.186,0-9.389,4.204-9.389,9.389v317.966c0,5.185,4.202,9.389,9.389,9.389
			c5.186,0,9.389-4.204,9.389-9.389V97.017C332.988,91.832,328.785,87.628,323.599,87.628z"/>
	</g>
</g>
<g>
	<g>
		<path d="M357.399,87.628c-5.186,0-9.389,4.204-9.389,9.389v317.966c0,5.185,4.202,9.389,9.389,9.389s9.389-4.204,9.389-9.389
			V97.017C366.787,91.832,362.585,87.628,357.399,87.628z"/>
	</g>
</g>
<g>
	<g>
		<circle cx="43.814" cy="378.68" r="9.355"/>
	</g>
</g>
<g>
	<g>
		<circle cx="43.814" cy="338.621" r="9.355"/>
	</g>
</g>
<g>
	<g>
		<circle cx="43.827" cy="258.504" r="9.355"/>
	</g>
</g>
<g>
	<g>
		<circle cx="43.827" cy="298.562" r="9.355"/>
	</g>
</g>
<g>
	<g>
		<circle cx="43.827" cy="218.445" r="9.355"/>
	</g>
</g>
<g>
	<g>
		<circle cx="43.827" cy="178.386" r="9.355"/>
	</g>
</g>
<g>
	<g>
		<circle cx="43.827" cy="138.328" r="9.355"/>
	</g>
</g>
<g>
</g>
<g>
</g>
<g>
</g>
<g>
</g>
<g>
</g>
<g>
</g>
<g>
</g>
<g>
</g>
<g>
</g>
<g>
</g>
<g>
</g>
<g>
</g>
<g>
</g>
<g>
</g>
<g>
</g>
</svg>
