<?xml version="1.0" encoding="iso-8859-1"?>
<!-- Generator: Adobe Illustrator 19.0.0, SVG Export Plug-In . SVG Version: 6.00 Build 0)  -->
<svg version="1.1" id="Layer_1" xmlns="http://www.w3.org/2000/svg" xmlns:xlink="http://www.w3.org/1999/xlink" x="0px" y="0px"
	 viewBox="0 0 512 512" style="enable-background:new 0 0 512 512;" xml:space="preserve">
<g>
	<g>
		<path d="M288.105,156.031c0-79.43-64.622-144.053-144.053-144.053S0,76.601,0,156.032c0,65.127,43.448,120.289,102.877,138.046
			l-7.276,157.196c-0.591,12.842,3.973,25.035,12.851,34.331c8.878,9.296,20.846,14.415,33.701,14.415
			c12.857,0,24.826-5.123,33.705-14.425c8.875-9.298,13.433-21.489,12.835-34.323l-7.217-156.13
			C242.82,278.625,288.105,222.521,288.105,156.031z M144.053,29.695c66.685,0,121.46,51.935,126.022,117.48H18.031
			C22.593,81.63,77.368,29.695,144.053,29.695z M163.044,473.365c-5.504,5.766-12.922,8.941-20.89,8.941
			c-7.969,0-15.387-3.173-20.89-8.934c-5.504-5.762-8.332-13.321-7.966-21.28l7.126-153.956c7.691,1.274,15.582,1.949,23.629,1.949
			c6.735,0,13.362-0.476,19.854-1.375l7.091,153.384C171.369,460.049,168.544,467.603,163.044,473.365z M144.052,282.37
			c-66.685,0-121.459-51.936-126.021-117.48h252.044C265.512,230.435,210.736,282.37,144.052,282.37z"/>
	</g>
</g>
<g>
	<g>
		<path d="M409.123,217.922l7.276-157.196c0.59-12.842-3.973-25.035-12.851-34.331S382.703,11.98,369.846,11.98
			s-24.826,5.123-33.705,14.425c-8.875,9.298-13.433,21.489-12.835,34.323l7.217,156.129
			c-61.344,16.519-106.629,72.623-106.629,139.113c0,79.43,64.622,144.053,144.053,144.053S512,435.4,512,355.969
			C512,290.842,468.552,235.68,409.123,217.922z M348.955,38.636c5.504-5.766,12.923-8.941,20.89-8.941
			c7.969,0,15.389,3.173,20.891,8.934c5.502,5.762,8.332,13.319,7.965,21.279l-7.126,153.956
			c-7.691-1.274-15.582-1.949-23.629-1.949c-6.735,0-13.362,0.476-19.854,1.375l-7.09-153.385
			C340.631,51.952,343.456,44.398,348.955,38.636z M367.947,229.631c66.685,0,121.46,51.935,126.022,117.48H241.925
			C246.487,281.566,301.263,229.631,367.947,229.631z M367.947,482.306c-66.685,0-121.46-51.935-126.022-117.48h252.045
			C489.407,430.371,434.632,482.306,367.947,482.306z"/>
	</g>
</g>
<g>
</g>
<g>
</g>
<g>
</g>
<g>
</g>
<g>
</g>
<g>
</g>
<g>
</g>
<g>
</g>
<g>
</g>
<g>
</g>
<g>
</g>
<g>
</g>
<g>
</g>
<g>
</g>
<g>
</g>
</svg>
