<?xml version="1.0" encoding="iso-8859-1"?>
<!-- Generator: Adobe Illustrator 19.0.0, SVG Export Plug-In . SVG Version: 6.00 Build 0)  -->
<svg version="1.1" id="Layer_1" xmlns="http://www.w3.org/2000/svg" xmlns:xlink="http://www.w3.org/1999/xlink" x="0px" y="0px"
	 viewBox="0 0 512 512" style="enable-background:new 0 0 512 512;" xml:space="preserve">
<g>
	<g>
		<path d="M255.999,73.908C155.592,73.908,73.907,155.595,73.907,256s81.687,182.092,182.092,182.092S438.091,356.405,438.091,256
			S356.405,73.908,255.999,73.908z M255.999,420.717c-90.825,0-164.716-73.892-164.716-164.716S165.174,91.284,255.999,91.284
			S420.715,165.176,420.715,256S346.824,420.717,255.999,420.717z"/>
	</g>
</g>
<g>
	<g>
		<path d="M464.471,207.477c-5.39-23.166-14.563-44.891-26.813-64.508c18.278-18.976,18.071-49.279-0.643-67.993
			c-9.166-9.168-21.357-14.216-34.324-14.216c-12.661,0-24.572,4.824-33.66,13.582c-19.616-12.25-41.342-21.423-64.508-26.813
			C303.98,21.23,282.427,0,255.994,0c-26.427,0-47.973,21.23-48.517,47.528c-23.166,5.39-44.891,14.562-64.508,26.812
			c-9.088-8.758-20.996-13.579-33.654-13.579c-0.001,0-0.003,0-0.006,0c-12.968,0.001-25.162,5.053-34.331,14.224
			c-18.708,18.708-18.912,49.005-0.636,67.982c-12.251,19.617-21.425,41.344-26.815,64.51C21.229,208.021,0,229.569,0,255.994
			c0,26.432,21.229,47.985,47.527,48.53c5.39,23.166,14.563,44.893,26.813,64.509c-8.756,9.088-13.579,20.997-13.579,33.656
			c0,12.968,5.048,25.158,14.216,34.324c9.171,9.171,21.363,14.222,34.331,14.224c0.002,0,0.003,0,0.006,0
			c12.657,0,24.566-4.822,33.653-13.578c19.616,12.25,41.343,21.423,64.509,26.813C208.027,490.772,229.571,512,255.993,512
			c26.429,0,47.979-21.229,48.53-47.528c23.166-5.39,44.893-14.563,64.51-26.815c9.381,9.031,21.517,13.559,33.662,13.559
			c12.43,0,24.859-4.731,34.321-14.193c9.171-9.171,14.223-21.364,14.223-34.335c0-12.658-4.822-24.568-13.579-33.658
			c12.25-19.616,21.422-41.342,26.812-64.506C490.77,303.981,512,282.428,512,255.994C512,229.568,490.769,208.02,464.471,207.477z
			 M44.209,286.867c-15.14-2.118-26.833-15.152-26.833-30.872c0-15.715,11.693-28.743,26.833-30.859
			c-1.463,10.082-2.235,20.384-2.235,30.866C41.975,266.482,42.746,276.784,44.209,286.867z M402.69,78.136
			c8.327,0,16.153,3.241,22.039,9.126c5.889,5.889,9.133,13.719,9.134,22.048c0.001,6.895-2.226,13.442-6.332,18.833
			c-12.382-16.569-27.104-31.292-43.674-43.674C389.248,80.364,395.797,78.136,402.69,78.136z M255.994,17.376
			c15.722,0,28.756,11.694,30.872,26.837c-10.083-1.463-20.385-2.234-30.867-2.234c-10.48,0-20.783,0.771-30.864,2.233
			C227.25,29.07,240.278,17.376,255.994,17.376z M87.263,87.271c5.889-5.889,13.719-9.133,22.048-9.134c0.001,0,0.001,0,0.003,0
			c6.891,0,13.437,2.226,18.827,6.331c-16.567,12.381-31.289,27.102-43.67,43.669C75.205,115.931,76.131,98.405,87.263,87.271z
			 M109.314,433.863c0,0-0.002,0-0.003,0c-8.328-0.001-16.158-3.245-22.048-9.134c-5.886-5.886-9.126-13.712-9.126-22.038
			c0-6.893,2.226-13.439,6.331-18.83c12.382,16.569,27.104,31.291,43.673,43.673C122.752,431.636,116.207,433.863,109.314,433.863z
			 M255.994,494.624c-15.711,0-28.736-11.693-30.857-26.834c10.082,1.462,20.383,2.233,30.863,2.233
			c10.481,0,20.784-0.771,30.866-2.235C284.742,482.931,271.711,494.624,255.994,494.624z M424.729,424.737
			c-11.132,11.13-28.655,12.054-40.865,2.791c16.566-12.381,31.287-27.102,43.667-43.669c4.104,5.392,6.331,11.94,6.331,18.831
			C433.862,411.017,430.618,418.848,424.729,424.737z M255.999,452.647c-108.432,0-196.647-88.215-196.647-196.647
			S147.567,59.354,255.999,59.354s196.647,88.215,196.647,196.647S364.431,452.647,255.999,452.647z M467.787,286.867
			c1.463-10.082,2.235-20.384,2.235-30.866c0-10.481-0.771-20.784-2.235-30.867c15.143,2.115,26.837,15.144,26.837,30.86
			C494.624,271.716,482.93,284.75,467.787,286.867z"/>
	</g>
</g>
<g>
</g>
<g>
</g>
<g>
</g>
<g>
</g>
<g>
</g>
<g>
</g>
<g>
</g>
<g>
</g>
<g>
</g>
<g>
</g>
<g>
</g>
<g>
</g>
<g>
</g>
<g>
</g>
<g>
</g>
</svg>
